<svg width="160" height="160" viewBox="0 0 160 160" fill="none" xmlns="http://www.w3.org/2000/svg">
  <!-- Helmet -->
  <path d="M80 140c33.137 0 60-26.863 60-60S113.137 20 80 20 20 46.863 20 80s26.863 60 60 60z" fill="#F5F5F5"/>
  
  <!-- Visor -->
  <path d="M80 120c22.091 0 40-17.909 40-40S102.091 40 80 40 40 57.909 40 80s17.909 40 40 40z" fill="#0B1026"/>
  
  <!-- Suit Details -->
  <path d="M95 65c0 8.284-6.716 15-15 15-8.284 0-15-6.716-15-15s6.716-15 15-15c8.284 0 15 6.716 15 15z" fill="#F5F5F5"/>
  
  <!-- Suit Lines -->
  <path d="M80 140c33.137 0 60-26.863 60-60S113.137 20 80 20 20 46.863 20 80s26.863 60 60 60z" stroke="white" strokeWidth="4"/>
  
  <!-- Oxygen Tubes -->
  <path d="M140 80h20M0 80h20M80 20V0M80 160v-20" stroke="white" strokeWidth="4"/>
  
  <!-- Stars -->
  <circle cx="50" cy="40" r="2" fill="white"/>
  <circle cx="110" cy="50" r="2" fill="white"/>
  <circle cx="130" cy="90" r="2" fill="white"/>
  <circle cx="40" cy="110" r="2" fill="white"/>
</svg>